# xmcd
#
# Track frame offsets: 
#        150
#        12638
#        25388
#        39418
#        52333
#        68308
#        79813
#        94230
#        107305
#        122813
#
# Disc length: 1901 seconds
#
# Revision: 4
# Processed by: cddbd v1.5.2PL0 Copyright (c) Steve Scherf et al.
# Submitted via: ExactAudioCopy v1.0b3
#
DISCID=7d076b0a
DTITLE=David Ball - Starlite Lounge
DYEAR=1996
DGENRE=Country
TTITLE0=Hangin' In Hangin' On
TTITLE1=Circle Of Friends
TTITLE2=I've Got My Baby On My Mind
TTITLE3=What Kind Of Hold
TTITLE4=I'll Never Make ItThrough This Fall
TTITLE5=Bad Day For The Blues
TTITLE6=If You'd Like Some Lovin'
TTITLE7=No More Lonely
TTITLE8=I Never Did Know
TTITLE9=The Bottle That Pours The Wine
EXTD=YEAR: 1996
EXTT0=
EXTT1=
EXTT2=
EXTT3=
EXTT4=
EXTT5=
EXTT6=
EXTT7=
EXTT8=
EXTT9=
PLAYORDER=
